<svg width="504" height="407" viewBox="0 0 504 407" fill="none" xmlns="http://www.w3.org/2000/svg">
<g filter="url(#filter0_d_10_4)">
<path d="M375.372 284.27C368.952 289.415 360.896 296.954 354.314 301.527C350.404 304.239 344.051 308.133 340.241 308.289C336.431 308.444 327.89 305.035 328.543 298.503C329.078 293.141 330.868 287.866 332.465 282.659C333.143 280.456 333.802 278.634 331.396 277.346C329.519 276.338 326.075 277.825 325.137 279.834C322.303 285.925 319.847 292.239 316.516 298.049C311.655 306.522 305.172 313.29 294.891 315.206C282.82 317.452 273.708 310.373 273.167 298.105C273.093 296.382 273.155 294.659 273.155 292.5C271.992 293.153 271.197 293.551 270.445 294.018C260.493 300.158 250.579 306.354 240.572 312.407C238.664 313.564 237.514 314.883 236.936 317.073C231.571 337.346 223.914 356.768 214.54 375.493C209.922 384.718 203.507 392.532 194.395 397.745C183.368 404.053 172.646 403.294 164.839 395.823C155.802 387.176 153.968 376.103 159.705 364.606C165.156 353.682 173.361 345.023 183.176 338.136C197.056 328.401 211.37 319.281 225.58 310.024C229.893 307.219 230.117 307.262 230.788 301.732C228.116 303.43 225.598 305.402 222.782 306.715C220.01 308.009 216.989 309.048 213.981 309.471C206.392 310.547 201.506 306.796 199.909 299.262C198.585 293.016 199.498 286.895 200.76 280.786C201.214 278.596 201.811 276.438 202.494 273.651C198.255 275.486 194.551 277.004 190.939 278.721C190.175 279.082 189.267 280.152 189.242 280.923C188.869 294.422 181.243 303.673 171.229 311.306C165.411 315.741 158.816 318.846 151.233 318.814C138.926 318.765 131.958 309.234 135.657 297.508C137.888 290.429 142.457 285.041 148.299 280.649C148.871 280.22 149.53 279.754 150.201 279.642C151.146 279.486 152.495 279.287 153.023 279.785C153.508 280.245 153.303 281.645 153.117 282.572C152.004 288.015 149.17 293.259 148.635 298.752C147.976 305.452 154.813 308.314 160.768 305.073C169.085 300.544 172.653 298.628 177.787 284.257C175.748 284.5 174.3 284.736 172.839 284.83C165.84 285.253 159.463 283.81 154.378 278.572C150.916 275.001 150.953 270.522 154.453 266.976C159.767 261.589 170.117 259.847 177.29 263.554C180.254 265.085 182.703 267.585 185.476 269.52C186.166 269.999 187.328 270.36 188.061 270.124C197.36 267.119 206.205 263.156 214.099 257.29C214.994 256.624 215.895 255.828 216.473 254.895C219.867 249.445 224.666 246.372 231.124 246.696C237.644 247.019 241.548 251.156 244.214 256.724C244.656 257.644 245.035 258.596 245.687 260.089C248.789 258.907 251.891 257.887 254.849 256.55C257.193 255.492 259.449 254.721 261.326 257.004C263.284 259.386 262.227 261.613 260.437 263.66C251.331 274.086 246.11 286.478 241.927 300.034C242.909 299.648 243.468 299.53 243.91 299.231C256.894 290.559 269.891 281.906 282.82 273.147C285.543 271.299 288.017 269.078 290.546 266.957C290.938 266.627 288.862 264.232 290.347 260.145C291.833 256.058 295.32 252.761 302.095 251.411C309.144 250.005 317.429 253.34 320.805 259.461C322.663 262.826 323.552 266.715 325 270.696C325.622 270.46 337.195 265.589 344.188 267.536C351.181 269.477 347.955 277.539 347.65 281.794C347.42 285.041 344.455 290.926 345.643 292.251C346.83 293.583 350.329 292.531 351.585 291.909C354.512 290.46 357.328 288.562 359.771 286.379C368.846 278.267 375.733 268.55 380.55 257.327C382.005 253.937 383.882 250.671 385.97 247.629C387.649 245.184 390.259 243.946 393.317 245.165C397.643 246.889 399.315 249.197 399.123 252.948C398.893 257.408 396.823 261.085 393.889 264.276C391.72 266.64 389.358 268.817 387.046 271.044C383.708 274.254 381.619 282.957 383.807 285.688C385.995 288.419 403.381 265.197 409.149 258.982C411.119 256.861 413.04 254.702 414.992 252.562C417.596 249.713 421.593 248.736 424.881 250.142C428.032 251.486 430.021 254.882 429.841 258.721C429.63 263.2 427.585 267.057 424.595 270.049C420.679 273.968 416.079 277.197 411.915 280.879C410.69 281.962 409.348 283.455 409.062 284.954C408.347 288.662 407.57 292.556 407.986 296.245C408.801 303.424 413.382 307.443 420.635 307.225C425.21 307.088 440.134 302.373 441.682 304.432C443.23 306.491 431.594 314.734 418.727 315.76C405.146 317.122 400.086 309.987 398.725 303.517C397.364 297.041 398.371 292.886 398.103 290.82C396.829 291.586 387.487 298.976 385.566 299.536C383.646 300.096 377.088 300.73 374.919 296.058C372.743 291.399 375.372 284.27 375.372 284.27ZM225.343 321.508C212.632 328.301 201.835 336.152 193.289 346.827C188.428 352.899 185.041 359.767 183.536 367.387C182.977 370.23 183.17 373.347 183.648 376.233C184.189 379.518 185.662 380.146 188.795 379.132C194.06 377.428 198.554 374.404 201.854 370.043C205.521 365.191 208.859 360.059 212.023 354.858C218.201 344.712 221.558 333.415 225.343 321.508ZM295.165 274.422C290.49 278.864 285.891 291.511 287.066 297.184C288.234 302.858 291.249 302.46 294.773 301.62C303.27 299.592 312.625 288.774 313.426 279.971C310.288 279.561 307.024 279.53 304.028 278.634C301.063 277.757 298.372 275.99 295.165 274.422ZM219.681 265.844C218.699 268.015 217.648 269.837 217.033 271.791C215.367 277.085 213.303 282.354 212.502 287.797C211.65 293.589 217.48 297.141 222.708 294.397C225.151 293.116 227.593 291.542 229.502 289.583C234.71 284.245 235.798 277.421 236.196 270.124C230.074 269.968 224.467 269.769 219.681 265.844ZM315.913 271.841C315.142 268.04 314.489 266.609 313.495 264.643C311.73 261.141 308.653 259.337 304.532 261.626C300.411 263.915 301.934 269.172 305.135 270.677C308.336 272.195 311.86 272.257 315.913 271.841ZM175.63 273.228C171.559 267.822 162.776 267.2 158.891 272.04C164.379 274.298 169.849 274.248 175.63 273.228ZM224.896 258.36C224.983 258.789 225.07 259.218 225.157 259.654C228.296 261.844 231.857 262.043 235.86 261.738C234.909 258.77 233.592 256.326 230.726 256.295C228.793 256.263 226.841 257.62 224.896 258.36ZM414.357 269.284C420.07 266.036 424.402 259.399 422.326 258.938C420.244 258.478 416.471 265.396 414.357 269.284ZM392.385 253.943C391.03 253.601 388.245 260.394 387.499 262.435C386.76 264.481 395.12 254.627 392.385 253.943Z" fill="white"/>
<path d="M106.766 309.863C123.623 322.062 143.756 285.527 142.755 288.923C141.754 292.32 130.516 319.573 119.179 321.465C107.841 323.356 105.262 318.808 99.2137 314.671C98.4305 314.136 96.945 314.217 95.9256 314.503C89.9771 316.171 84.153 319.057 78.1362 319.517C67.8926 320.301 57.5435 319.524 49.4941 311.573C45.7646 307.891 43.5891 303.673 43.5083 298.111C43.4151 291.946 43.2286 285.906 45.8144 280.139C49.5003 271.928 57.5062 268.911 65.6363 272.705C72.4799 275.897 77.2225 281.614 82.4375 286.758C86.6331 290.895 90.7914 295.069 95.0057 299.188C95.7329 299.903 96.6342 300.438 97.3987 301.017C108.885 294.516 135.246 260.898 137.621 249.601C136.85 249.159 136.042 248.363 135.128 248.214C127.309 246.951 119.707 244.158 111.62 244.823C106.48 245.246 101.619 246.584 97.4298 249.7C93.6382 252.518 91.6927 256.12 93.0664 261.016C94.2101 265.097 95.1673 269.234 96.3545 273.302C97.2185 276.257 96.8207 278.845 94.6452 281.047C92.4697 283.25 89.7907 282.982 87.0868 282.428C78.0802 280.581 74.6305 272.021 74.2762 265.029C73.8287 256.139 76.9614 248.873 84.4824 243.305C99.164 231.019 115.729 230.963 122.746 233.066C129.074 234.957 135.371 236.935 141.717 238.752C142.5 238.976 143.731 238.696 144.365 238.173C146.205 236.661 147.442 236.935 148.598 238.938C148.952 239.548 149.667 240.27 150.288 240.35C165.119 242.229 179.962 243.579 194.6 239.131C200.891 237.215 204.135 235.361 207.399 232.556C210.662 229.75 210.45 225.14 211.948 225.682C213.446 226.223 214.714 231.66 210.817 238.179C206.92 244.699 191.76 250.652 186.166 251.517C173.454 253.489 160.805 253.24 148.225 250.621C146.335 250.229 145.465 250.69 144.7 252.456C138.447 266.957 130.926 280.78 121.304 293.315C116.922 299.032 111.807 304.17 106.766 309.863ZM85.7815 304.388C79.9823 298.41 74.5559 292.618 68.9058 287.057C65.9471 284.145 62.1742 285.11 60.9186 289.072C60.123 291.579 59.6133 294.335 59.7376 296.942C60.0173 302.901 62.746 306.236 67.9051 307.069C73.9095 308.034 79.8144 307.66 85.7815 304.388Z" fill="white"/>
<path d="M267.648 29.2261C260.108 31.8886 253.923 35.1297 248.54 39.6958C233.362 52.573 222.596 68.343 218.475 88.0321C217.462 92.8844 218.027 98.0975 218.121 103.136C218.152 104.723 218.86 106.359 219.507 107.87C223.162 116.393 228.215 118.944 237.184 116.829C246.384 114.657 254.24 109.942 261.059 103.566C266.417 98.5516 287.787 80.2 290.111 85.9916C291.075 86.9621 263.004 116.225 249.833 125.177C243.593 129.42 236.581 131.958 229.017 132.648C221.44 133.345 209.711 129.992 205.484 118.993C201.972 109.855 201.593 100.617 203.75 91.2358C209.848 64.6602 223.497 42.9058 245.893 27.1545C254.837 20.8652 264.938 17.002 275.877 15.0611C279.277 14.4577 282.261 11.2104 285.313 9.00818C291.131 4.80908 311.425 -2.04633 310.269 0.585103C309.113 3.21654 295.127 7.62715 290.037 16.1311C290.466 16.3488 290.857 16.579 291.274 16.747C302.487 21.282 306.695 30.0597 303.233 41.7052C300.001 52.5793 285.76 63.3663 274.734 63.2916C266.746 63.2418 261.345 58.1656 260.761 50.1096C260.325 44.094 262.352 38.7067 265.105 33.5247C265.715 32.3489 266.448 31.2292 267.648 29.2261ZM276.362 41.2759C275.467 47.3724 279.756 51.2977 284.598 48.6974C291.41 46.2899 295.817 37.9975 294.935 33.5558C294.052 29.1141 288.265 26.6568 282.031 28.7222C281.565 28.6102 277.257 35.1794 276.362 41.2759Z" fill="white"/>
<path d="M369.095 90.7444C369.194 96.3432 367.578 100.542 364.601 104.169C359.311 110.614 349.925 109.115 347.246 101.22C346.103 97.8486 345.972 94.1285 345.437 90.5577C343.846 79.8765 335.878 74.5701 325.174 73.4254C317.864 72.6478 300.019 83.777 296.377 81.805C292.734 79.8329 303.991 73.2575 307.919 71.1548C319.431 64.9961 331.75 61.7861 344.716 65.1579C355.905 68.0692 365.005 74.0288 368.485 86.0414C368.684 86.7319 368.858 87.4473 368.933 88.1627C369.051 89.2887 369.076 90.4333 369.095 90.7444Z" fill="white"/>
<path d="M492.353 253.931C492.365 264.257 488.188 272.755 481.904 280.145C472.922 290.715 449.321 304.202 447.475 302.161C445.629 300.121 450.981 298.634 456.954 293.439C462.927 288.245 471.287 282.254 477.211 270.572C480.07 264.935 477.801 258.777 472.201 256.108C470.995 255.529 469.789 254.895 468.702 254.123C462.281 249.601 460.976 243.15 465.233 237.228C469.727 230.969 477.435 229.657 483.489 234.21C490.14 239.206 491.899 246.428 492.353 253.931Z" fill="white"/>
<path d="M73.3065 61.5C72.8838 50.4268 77.241 41.0582 87.2111 36.5356C98.2751 31.5216 111.682 39.9695 111.253 51.4719C111.129 54.881 109.681 57.5186 106.691 59.0365C103.633 60.5917 100.649 59.8888 97.9581 57.8919C96.9635 57.1516 96.1058 56.2371 95.1175 55.4906C92.5752 53.5684 90.0206 52.0629 86.6019 53.6741C83.003 55.3662 81.2688 57.9603 81.3683 61.9479C81.5672 70.2092 84.4513 77.5312 89.2374 84.0942C92.3888 88.4178 105.436 98.365 105.013 99.4536C104.59 100.542 98.7972 97.8611 89.4052 91.6651C80.0008 85.4753 73.7291 72.5732 73.3065 61.5Z" fill="white"/>
<path d="M475.29 183.392C473.152 183.995 479.84 170.092 480.306 168.91C482.979 162.104 485.633 152.711 484.061 140.48C482.488 128.25 470.672 117.513 470.075 115.696C469.025 112.493 469.789 109.525 472.431 107.279C474.675 105.37 478.547 104.959 481.071 107.217C484.086 109.911 487.206 113.009 488.878 116.586C496.299 132.455 494.491 151.019 487.162 166.565C485.179 170.764 477.428 182.789 475.29 183.392Z" fill="white"/>
<path d="M1.0051 232.095C1.16671 227.367 5.24423 222.241 10.6208 221.277C14.5927 220.568 26.2037 215.51 39.0267 221.831C51.8498 228.151 57.8355 248.071 56.9778 248.904C56.12 249.738 54.4169 248.456 53.5591 247.735C49.9975 244.749 46.6845 241.476 43.1291 238.484C35.9935 232.475 28.1243 232.991 20.1496 236.4C16.2647 238.061 12.6596 240.382 8.14077 239.884C3.73381 239.399 0.862143 236.357 1.0051 232.095Z" fill="white"/>
<path d="M43.4648 212.039C42.2279 212.207 42.0228 206.509 42.203 204.269C44.0988 180.275 56.493 163.379 77.6141 152.574C79.7896 151.46 82.2696 150.875 84.6689 150.322C86.5958 149.88 88.877 149.662 89.5172 152.244C90.0953 154.583 88.1995 155.572 86.4031 156.182C77.036 159.379 69.4901 165.221 62.8952 172.393C54.7837 181.215 50.1903 191.877 47.0265 203.268C46.2681 205.968 44.7018 211.865 43.4648 212.039Z" fill="white"/>
<path d="M335.642 101.556C338.016 104.293 339.508 107.429 339.222 111.186C339.01 113.961 337.724 115.989 334.933 116.567C332.192 117.133 330.402 115.622 329.27 113.245C328.065 110.726 326.946 108.163 325.721 105.656C323.415 100.947 319.487 98.6262 314.371 98.1783C312.103 97.9793 309.796 98.029 307.577 97.6122C306.676 97.4443 305.278 95.5531 308.367 94.8937C316.814 93.0959 330.097 95.155 335.642 101.556Z" fill="white"/>
<path d="M138.808 369.484C141.22 357.683 152.924 347.841 155.342 345.981C156.355 345.203 159.749 343.275 159.749 345.434C159.749 347.592 149.07 359.816 146.006 368.737C142.941 377.658 144.135 388.899 143.687 389.739C143.209 390.628 136.396 381.291 138.808 369.484Z" fill="white"/>
<path d="M31.4374 272.077C33.5631 271.299 35.1544 273.564 34.2655 275.324C29.4359 284.892 31.8911 294.049 35.6392 303.15C36.1427 304.37 39.9778 310.242 38.8092 310.845C37.6407 311.449 35.1979 309.676 34.5328 309.153C22.7664 299.897 22.0205 285.527 27.8882 275.834C28.833 274.26 29.3116 272.855 31.4374 272.077Z" fill="white"/>
<path d="M480.468 299.02C475.899 303.362 469.895 306.864 469.112 307.113C467.322 307.685 465.401 307.449 465.109 305.52C464.929 304.345 466.054 302.161 467.117 301.732C477.087 297.701 482.041 292.058 487.374 283.225C488.822 280.824 494.422 274.435 495.771 275.48C497.114 276.519 485.037 294.677 480.468 299.02Z" fill="white"/>
<path d="M499.942 178.565C500.595 181.451 491.843 200.649 487.566 205.476C483.29 210.304 478.218 215.137 475.756 215.137C473.295 215.137 482.482 203.921 483.265 203.118C489.133 197.059 494.335 180.244 496.467 176.96C496.822 176.4 499.295 175.678 499.942 178.565Z" fill="white"/>
<path d="M70.5778 88.9341C78.4345 90.3089 84.9051 96.0757 88.0813 99.6962C91.2513 103.317 93.0042 106.676 91.8916 106.8C90.7852 106.925 75.0469 98.1535 68.1723 96.9279C66.0341 96.5485 64.648 94.9373 64.9588 92.6791C65.3255 90.0041 67.2897 88.9652 70.5778 88.9341Z" fill="white"/>
<path d="M25.4951 248.388C32.2329 248.394 41.0344 253.999 41.7057 254.808C42.3832 255.616 43.1477 257.01 42.8432 257.508C42.5013 258.074 40.6863 258.124 39.9839 257.943C37.0936 257.19 34.309 255.996 31.4 255.361C30.1071 255.082 28.46 255.436 27.2417 256.046C25.607 256.861 24.2954 258.304 22.7291 259.287C21.4362 260.102 19.9258 261.253 18.5956 261.147C16.762 261.004 14.487 260.282 13.3371 258.982C11.721 257.159 12.585 254.845 14.3876 253.221C17.7378 250.211 21.691 248.618 25.4951 248.388Z" fill="white"/>
<path d="M207.933 51.9136C205.577 53.6928 209.518 44.1313 211.451 41.2075C218.108 31.1234 227.028 23.2976 237.116 16.7905C238.751 15.7392 242.909 13.6863 242.909 15.7454C242.909 17.8045 240.765 18.7936 239.335 19.845C230.95 26.0161 223.628 33.251 217.045 41.2946C214.18 44.7845 210.699 49.8234 207.933 51.9136Z" fill="white"/>
<path d="M393.516 158.403C394.48 149.034 402.579 139.958 411.753 137.998C412.847 137.762 414.04 137.581 415.11 137.787C415.868 137.93 416.943 138.701 417.036 139.323C417.136 139.933 416.315 140.922 415.65 141.37C414.824 141.924 413.736 142.085 412.766 142.434C406.613 144.636 402.746 146.751 399.514 152.256C398.035 154.782 396.319 159.448 394.455 161.924C392.59 164.4 393.404 159.467 393.516 158.403Z" fill="white"/>
<path d="M471.685 155.852C470.013 156.792 470.137 148.512 467.228 142.116C464.32 135.721 455.922 129.488 460.615 126.689C465.308 123.889 469.796 132.381 471.747 137.295C472.736 139.777 473.357 154.913 471.685 155.852Z" fill="white"/>
<path d="M420.666 331.965C417.385 332.886 408.378 331.94 403.026 329.713C397.674 327.486 396.089 321.701 396.512 321.34C397.128 320.811 398.389 320.083 400.409 321.52C402.429 322.957 407.7 327.486 415.824 327.486C423.948 327.486 430.873 325.676 429.891 327.486C428.909 329.297 423.948 331.045 420.666 331.965Z" fill="white"/>
<path d="M376 73.4005C375.223 73.8422 370.785 67.9137 369.076 65.5311C365.185 60.1065 360.33 56.5855 353.456 56.1998C352.642 56.1563 351.386 55.6959 351.081 54.7255C350.777 53.755 353.922 52.741 354.711 52.6601C364.75 51.615 372.258 62.2963 373.912 65.6058C375.571 68.9153 376.777 72.9589 376 73.4005Z" fill="white"/>
<path d="M29.6348 185.445C29.6348 178.664 31.425 177.227 34.2718 173.675C35.5895 172.033 37.4045 171.037 39.4184 172.387C41.3515 173.681 40.8791 175.51 40.0213 177.352C38.1069 181.457 36.2608 181.837 35.2041 184.512C34.1475 187.187 33.9113 196.817 32.867 197.246C31.8228 197.663 29.6348 192.226 29.6348 185.445Z" fill="white"/>
<path d="M244.096 105.065C242.051 107.298 234.337 107.827 231.354 104.909C227.252 100.897 226.512 94.1845 229.906 89.9917C230.633 89.0959 232.653 88.6293 232.541 89.6931C232.038 94.2903 231.603 100.244 236.121 102.788C237.147 103.367 246.141 102.838 244.096 105.065Z" fill="white"/>
<path d="M292.175 325.968C292.175 323.953 306.322 319.474 310.872 315.505C311.587 314.877 313.022 313.576 314.471 315.281C315.919 316.986 314.757 318.205 314.092 318.908C309.337 323.953 292.175 327.978 292.175 325.968Z" fill="white"/>
<path d="M132.17 381.148C131.013 381.117 128.664 378.267 128.365 377.011C127.29 372.532 127.47 368.382 129.938 364.538C130.529 363.617 135.054 358.093 136.023 358.429C136.57 358.616 134.768 364.127 133.469 369.782C132.17 375.431 132.692 381.16 132.17 381.148Z" fill="white"/>
<path d="M69.6579 338.087C68.9058 337.602 68.0791 336.538 68.1039 335.76C68.1288 334.995 69.055 333.832 69.8257 333.589C74.8169 332.015 79.8455 330.522 84.9361 329.303C85.8934 329.073 91.0835 327.045 91.0835 329.085C91.0835 331.126 87.4038 333.969 86.4217 334.392C82.0148 336.289 75.7555 338.037 73.6235 338.261C71.4915 338.485 70.4597 338.603 69.6579 338.087Z" fill="white"/>
<path d="M205.235 38.5512C202.873 38.5512 210.27 25.8917 216.299 21.9476C217.207 21.3566 220.259 20.1933 220.259 22.0658C220.259 23.9383 216.405 26.4515 213.925 29.0519C212.116 30.943 207.591 38.5512 205.235 38.5512Z" fill="white"/>
<path d="M377.523 242.179C377.523 245.041 375.764 247.685 372.625 251.585C372.078 252.263 367.634 259.106 366.683 258.789C366.192 258.627 365.576 257.775 366.08 255.853C366.59 253.931 367.534 246.559 370.406 243.368C373.278 240.182 377.523 239.312 377.523 242.179Z" fill="white"/>
<path d="M61.2853 72.5856C61.2356 69.5809 64.2191 67.4223 66.4816 69.2699C68.5577 70.9682 70.7021 73.9231 71.1186 76.2062C71.535 78.4892 69.7884 78.7878 68.7628 79.0616C65.9409 79.8081 61.335 75.5965 61.2853 72.5856Z" fill="white"/>
<path d="M17.9306 305.023C17.9306 306.733 16.4326 307.959 14.5058 307.393C11.0747 306.391 8.06005 301.004 9.07943 297.67C9.79424 295.324 12.5354 294.503 13.8096 296.506C15.4878 299.15 17.9306 303.312 17.9306 305.023Z" fill="white"/>
<path d="M439.917 71.3228C439.954 73.9356 437.872 76.0569 435.267 76.0631C432.843 76.0693 430.649 74.0227 430.543 71.6587C430.425 69.0833 432.464 66.8873 435.081 66.7878C437.71 66.6882 439.879 68.7225 439.917 71.3228Z" fill="white"/>
<path d="M489.263 307.766C486.671 309.253 482.165 310.024 481.705 308.668C481.438 307.884 484.881 305.807 487.355 303.3C489.829 300.793 491.961 298.342 493.546 297.906C495.504 297.359 491.855 306.279 489.263 307.766Z" fill="white"/>
<path d="M264.844 241.682C267.113 241.663 268.959 243.455 269.027 245.763C269.102 248.151 267.262 250.13 264.869 250.235C262.47 250.341 260.475 248.431 260.487 246.036C260.499 243.722 262.513 241.7 264.844 241.682Z" fill="white"/>
<path d="M503 200.052C503 203.1 496.722 207.952 495.97 207.504C495.212 207.056 500.557 196.636 501.278 196.916C502.024 197.215 503 197.003 503 200.052Z" fill="white"/>
<path d="M360.417 252.375C359.342 252.139 358.006 248.917 359.187 246.64C360.368 244.363 362.332 242.043 364.389 242.472C365.098 242.621 363.594 245.053 362.624 247.666C361.741 250.03 361.487 252.612 360.417 252.375Z" fill="white"/>
<path d="M418.193 340.575C415.452 342.485 405.979 341.695 404.22 337.987C403.387 336.227 403.828 335.841 405.798 336.034C409.267 336.382 420.934 338.665 418.193 340.575Z" fill="white"/>
<path d="M380.668 54.6632C382.502 56.8219 383.161 62.5513 381.775 63.1361C380.388 63.7208 378.716 57.3569 376.727 55.5466C374.738 53.7426 367 50.825 371.575 50.8623C376.143 50.8996 378.835 52.5108 380.668 54.6632Z" fill="white"/>
<path d="M91.9909 138.222C90.0019 138.564 88.1496 136.754 88.0875 134.284C88.0191 131.802 89.3866 130.347 91.8169 130.297C94.2473 130.247 95.6707 131.678 95.7452 134.123C95.8198 136.599 93.98 137.88 91.9909 138.222Z" fill="white"/>
<path d="M306.863 333.06C306.626 332.146 308.671 331.206 310.623 330.136C312.575 329.066 312.277 327.424 313.837 327.02C314.744 326.783 316.441 327.094 316.771 327.704C317.231 328.556 316.031 330.721 313.93 332.214C311.829 333.707 307.093 333.956 306.863 333.06Z" fill="white"/>
<path d="M105.007 117.749C104.827 120.095 103.614 121.575 101.172 121.662C98.8408 121.743 97.4609 120.412 97.4236 118.11C97.3863 115.703 98.7475 114.247 101.19 114.16C103.546 114.066 104.733 115.423 105.007 117.749Z" fill="white"/>
<path d="M468.161 331.549C468.161 329.745 469.684 327.916 472.071 328.015C474.457 328.115 475.688 329.589 475.582 331.853C475.483 333.993 474.047 335.306 471.909 335.269C469.646 335.238 468.161 333.359 468.161 331.549Z" fill="white"/>
<path d="M456.102 330.827C456.32 329.471 457.022 328.631 458.471 328.693C459.913 328.755 460.659 329.645 460.596 331.02C460.534 332.314 459.664 333.11 458.371 333.085C456.997 333.054 456.214 332.227 456.102 330.827Z" fill="white"/>
<path d="M391.123 146.9C389.035 147.952 392.764 138.539 394.896 137.7C397.028 136.86 399.259 137.357 398.551 138.813C394.498 143.274 393.212 145.843 391.123 146.9Z" fill="white"/>
<path d="M236.258 94.2841C237.246 92.6106 242.872 95.5718 242.598 98.0042C242.48 99.0368 241.573 99.4412 240.541 99.7087C238.57 100.206 235.27 95.9575 236.258 94.2841Z" fill="white"/>
<path d="M371.338 155.019C370.561 156.779 368.703 157.345 367.472 157.264C366.366 157.19 364.731 155.504 364.476 154.284C364.066 152.35 366.372 149.868 368.336 150.154C369.685 150.353 372.115 153.264 371.338 155.019Z" fill="white"/>
<path d="M161.725 20.1809C159.972 22.8994 158.412 23.5153 156.51 23.8823C153.639 24.4298 151.214 22.3582 151.737 19.4219C152.06 17.6054 154.36 14.974 155.926 14.862C157.753 14.7376 163.478 17.4624 161.725 20.1809Z" fill="white"/>
<path d="M85.2034 344.849C83.4257 345.44 82.3255 344.345 82.3566 343.418C82.4498 340.923 85.8933 339.598 87.7456 339.555C88.6593 339.53 91.4689 340.133 90.5303 341.57C89.5979 343.001 86.9811 344.264 85.2034 344.849Z" fill="white"/>
<path d="M460.571 323.605C458.346 324.295 458.284 321.178 458.346 320.034C458.408 318.976 459.987 317.396 461.143 317.141C462.996 316.73 464.438 318.223 464.189 320.096C464.021 321.321 462.797 322.92 460.571 323.605Z" fill="white"/>
<path d="M351.541 146.228C351.193 144.294 352.617 142.857 354.481 143.267C355.606 143.516 357.067 145.059 357.204 146.166C357.328 147.186 356.75 148.903 355.134 149.526C353.524 150.154 351.759 147.435 351.541 146.228Z" fill="white"/>
<path d="M364.632 142.11C363.78 142.11 363.221 140.636 363.072 139.802C362.829 138.459 363.817 137.463 365.116 137.749C365.9 137.924 366.913 138.994 367.006 139.765C367.093 140.468 365.483 142.11 364.632 142.11Z" fill="white"/>
<path d="M169.824 31.1919C168.531 31.0985 165.591 30.1779 166.437 27.845C167.282 25.5122 168.563 24.3613 169.973 24.1623C171.26 23.9756 173.212 25.9974 173.212 28.2991C173.212 30.6009 171.235 31.2976 169.824 31.1919Z" fill="white"/>
<path d="M157.169 37.3381C155.951 37.251 154.335 36.3863 154.577 34.999C154.82 33.6118 156.137 32.4671 158.002 33.3816C159.873 34.2899 158.387 37.4252 157.169 37.3381Z" fill="white"/>
<path d="M7.90466 197.314C11.0933 197.986 10.6396 200.363 10.5961 201.426C10.5526 202.391 9.59534 204.008 8.07248 204.008C6.54341 204.008 5.52403 202.422 5.26919 201.302C5.07028 200.481 4.7222 196.642 7.90466 197.314Z" fill="white"/>
<path d="M425.496 54.5575C422.96 55.2791 421.232 52.3491 421.257 51.3289C421.276 50.4517 423.227 47.503 425.353 48.1002C427.479 48.7036 427.69 49.7985 427.926 50.8623C428.094 51.6461 428.032 53.8421 425.496 54.5575Z" fill="white"/>
<path d="M108.805 131.05C108.438 133.028 107.307 133.581 106.436 133.519C105.299 133.432 104.006 132.231 104.006 131.05C104.006 129.874 105.019 129.034 106.275 128.63C107.53 128.225 109.165 129.065 108.805 131.05Z" fill="white"/>
<path d="M21.977 200.873C24.1588 200.873 24.2209 203.423 24.1588 204.276C24.0904 205.146 23.705 206.751 22.1076 206.751C20.5163 206.751 19.9507 205.202 19.7456 204.238C19.5964 203.51 19.7953 200.873 21.977 200.873Z" fill="white"/>
<path d="M16.0783 192.045C17.452 192.045 17.5017 193.103 17.4582 193.638C17.4147 194.185 17.1598 195.753 16.1591 195.753C15.1584 195.753 14.7792 194.509 14.6487 193.899C14.5492 193.439 14.7046 192.045 16.0783 192.045Z" fill="white"/>
<path d="M415.072 67.5902C415.072 69.7675 412.536 70.6758 411.647 70.682C410.895 70.6882 409.515 69.5001 409.515 67.8142C409.515 66.1283 410.939 65.7675 411.846 65.5311C412.505 65.3632 415.072 65.4129 415.072 67.5902Z" fill="white"/>
<path d="M273.024 260.973C271.302 261.844 270.861 258.777 270.793 257.937C270.737 257.277 271.004 255.94 272.434 255.94C273.863 255.94 274.541 256.917 274.727 257.682C274.895 258.397 274.746 260.102 273.024 260.973Z" fill="white"/>
<path d="M278.134 250.982C276.412 251.635 275.97 249.333 275.902 248.705C275.846 248.207 276.113 247.206 277.543 247.206C278.973 247.206 279.65 247.94 279.837 248.512C280.004 249.047 279.855 250.329 278.134 250.982Z" fill="white"/>
<path d="M472.661 192.425C473.252 188.885 468.552 193.868 467.894 194.658C462.809 200.773 457.967 207.112 452.59 212.954C447.637 218.335 441.576 222.241 434.391 224.35C428.691 226.018 424.564 223.629 424.918 217.663C425.291 211.417 426.646 205.227 427.684 199.031C427.821 198.198 428.455 197.302 429.114 196.73C433.036 193.364 436.958 189.992 441.035 186.813C446.07 182.882 448.793 177.681 449.557 171.498C450.521 163.746 443.422 158.061 436.405 161.096C434.074 162.104 431.662 164.033 430.413 166.191C428.057 170.26 425.508 174.652 424.843 179.174C423.234 190.098 416.558 196.269 406.749 201.134C407.377 198.639 407.756 196.835 408.297 195.075C410.125 189.109 412.76 183.616 416.384 178.422C418.97 174.72 420.778 170.241 421.934 165.843C423.084 161.451 420.076 158.62 415.663 159.771C413.071 160.449 410.162 162.154 408.651 164.288C405.326 168.984 402.386 174.061 400.068 179.324C397.699 184.692 394.865 189.625 391.123 194.111C385.746 200.555 380.401 207.044 373.216 211.61C372.134 212.3 370.661 212.381 369.362 212.742C369.082 211.386 368.367 209.955 368.597 208.692C369.71 202.602 370.997 196.543 372.383 190.509C373.346 186.297 372.246 183.317 368.889 181.93C366.099 180.773 362.761 182.098 360.902 185.563C359.696 187.809 359.143 190.397 358.18 192.786C357.421 194.677 356.856 196.823 355.569 198.297C351.349 203.125 347.066 207.946 342.361 212.288C339.489 214.944 335.809 216.724 331.713 219.411C331.539 216.742 331.116 215.1 331.39 213.582C331.943 210.54 332.732 207.517 333.671 204.562C337.127 193.688 340.658 182.838 349.154 174.552C349.882 173.843 350.41 172.904 350.901 171.995C353.083 167.952 351.927 163.622 348.253 161.874C345.114 160.381 340.943 162.378 339.135 166.197C338.563 167.404 338.165 168.86 337.233 169.7C331.552 174.801 325.746 179.759 319.978 184.767C318.548 186.011 317.442 185.812 316.043 184.412C312.451 180.841 308.112 180.145 303.45 182.03C299.783 183.51 297.558 186.981 298.148 189.918C298.807 193.196 301.977 195.51 306.042 195.722C307.329 195.79 308.609 195.896 310.499 196.033C307.18 204.381 303.164 211.386 295.339 215.473C294.425 215.952 293.437 216.294 292.461 216.636C290.117 217.458 288.526 216.475 287.905 214.266C287.494 212.817 287.24 211.106 287.606 209.688C289.104 203.902 290.18 197.862 292.685 192.512C297.576 182.055 304.494 172.835 312.5 164.474C314.725 162.148 314.924 159.634 313.259 157.83C311.537 155.958 309.218 156.076 306.676 158.309C304.818 159.952 302.922 161.594 301.318 163.479C292.883 173.389 282.13 179.417 269.438 182.465C268.592 176.338 265.118 172.804 258.517 171.616C252.214 170.484 247.676 173.308 242.952 176.586C244.488 173.414 245.942 170.577 249.541 168.916C260.518 163.846 271.464 158.645 282.093 152.891C289.614 148.816 296.097 143.13 299.976 135.273C304.121 126.888 298.366 117.37 289.048 117.351C285.381 117.345 281.167 118.129 278.152 120.045C272.185 123.833 266.1 127.983 261.463 133.221C254.222 141.407 248.174 150.645 241.573 159.392C239.173 162.564 237.103 166.278 234.008 168.561C230.819 170.913 226.568 171.821 222.677 173.408C222.03 171.815 221.601 170.658 221.104 169.538C215.541 157.134 199.616 152.997 189.945 161.439C184.239 166.421 183.3 175.423 188.155 179.989C193.407 184.922 199.989 186.247 206.864 185.98C210.817 185.824 211.781 186.496 210.612 190.353C207.573 200.375 201.239 207.965 192.879 214.005C190.181 215.952 187.204 215.71 184.251 214.776C179.67 213.333 178.98 209.165 182.275 205.706C185.09 202.758 187.8 199.529 189.746 195.977C191.959 191.927 190.492 187.193 187.278 185.159C184.307 183.28 179.888 183.989 176.917 187.367C174.828 189.744 173.255 192.593 171.621 195.336C168.016 201.383 162.776 205.482 156.255 207.709C151.469 209.339 149.723 208.157 150.444 203.224C151.625 195.199 153.129 187.112 155.634 179.417C157.828 172.68 161.446 166.384 164.727 160.039C165.523 158.502 167.319 157.345 168.88 156.375C172.385 154.197 176.127 152.356 179.54 150.11C196.061 139.242 199.971 127.927 198.721 120.505C198.112 116.878 196.782 113.065 193.009 111.435C189.311 109.836 185.898 111.336 182.94 113.718C181.659 114.745 180.41 115.92 179.477 117.258C172.261 127.597 165.125 137.992 157.952 148.356C157.318 149.27 156.715 150.577 155.82 150.875C151.022 152.499 146.062 152.754 140.629 152.406C141.928 149.214 142.991 146.533 144.11 143.877C148.56 133.289 153.036 122.714 157.486 112.126C158.276 110.253 159.544 109.457 161.62 108.99C165.94 108.02 170.247 106.769 174.349 105.115C181.858 102.085 188.428 97.6185 193.003 90.7382C195.887 86.4022 196.086 81.7988 193.45 77.2451C190.939 72.8967 187.166 71.1921 182.076 71.1735C177.42 71.161 173.977 73.0522 170.695 75.92C162.577 83.0118 156.262 91.5531 150.493 100.573C149.859 101.563 148.579 102.67 147.522 102.751C143.308 103.074 139.001 103.522 134.855 102.981C128.017 102.085 128.583 102.514 121.764 101.413C120.341 101.183 108.456 98.4085 108.923 101.164C109.389 103.92 124.885 109.556 130.249 110.471C134.855 111.255 139.604 111.18 144.371 111.491C144.284 111.933 144.278 112.244 144.166 112.511C139.218 124.244 134.152 135.933 129.397 147.74C128.223 150.652 126.656 151.865 123.61 152.188C116.885 152.891 110.893 155.753 105.349 159.485C104.441 160.095 103.036 161.271 103.77 163.019C104.503 164.767 108.979 163.193 109.644 162.925C114.051 161.159 118.551 159.952 123.38 160.518C123.38 160.953 123.449 161.183 123.368 161.351C115.679 178.216 108.127 195.187 96.9947 210.142C94.6203 213.333 91.1146 216.114 87.5406 217.906C79.199 222.074 70.2608 216.139 70.7767 206.807C71.4045 195.361 76.5201 186.011 85.6634 179.037C89.6042 176.033 93.8246 173.395 97.8152 170.446C98.9588 169.6 99.6612 167.921 99.0894 167.05C98.5238 166.179 96.5596 165.743 94.9124 166.216C88.6034 168.02 82.6177 170.701 77.8751 175.342C73.5241 179.604 69.3036 184.064 65.512 188.823C58.9109 197.109 54.6158 206.36 55.0323 217.339C55.3244 225.19 58.5131 233.962 65.8912 236.624C76.2217 240.357 96.5969 232.587 103.074 223.392C106.884 217.986 111.024 212.717 114.088 206.895C121.758 192.344 128.888 177.507 136.297 162.813C136.794 161.83 137.739 160.406 138.553 160.356C142.606 160.101 146.683 160.238 150.972 160.238C148.007 166.72 145.198 172.692 142.537 178.739C137.764 189.594 135.439 201.022 135.383 212.842C135.333 223.61 144.682 229.601 154.428 225.209C156.865 224.114 159.164 222.664 161.433 221.227C163.944 219.641 166.35 217.887 168.929 216.126C169.383 217.053 169.725 217.781 170.098 218.49C174.455 226.839 181.939 230.186 190.827 227.43C193.848 226.49 196.9 225.165 199.461 223.343C212.191 214.272 219.73 201.787 222.789 186.54C223.491 183.044 224.094 182.471 228.19 182.527C227.668 183.597 227.171 184.605 226.68 185.613C222.347 194.503 219.065 203.741 217.592 213.557C216.436 221.246 220.893 227.722 227.979 228.624C233.038 229.265 237.812 228.419 242.387 225.986C253.948 219.846 260.792 209.688 266.367 198.372C266.927 197.24 267.71 196.008 268.729 195.361C272.483 192.985 276.374 190.826 280.222 188.605C281.844 187.672 283.485 186.782 285.12 185.874C284.704 187.597 284.001 188.854 283.23 190.067C279.184 196.487 275.436 203.056 274.044 210.639C271.806 222.789 279.768 232.593 291.118 231.697C295.388 231.361 299.031 229.439 302.263 226.708C312.003 218.484 316.584 207.454 319.282 195.386C319.487 194.459 319.81 193.289 320.494 192.779C322.613 191.181 324.926 189.843 327.785 188.008C326.958 189.868 326.392 191.149 325.814 192.431C322.408 200.002 319.077 207.585 319.064 216.133C319.045 227.865 327.462 232.941 337.916 227.554C345.705 223.542 351.1 217.003 356.34 210.291C356.8 209.7 356.874 208.804 357.129 208.052C357.508 208.394 357.888 208.742 358.267 209.084C358.267 209.7 358.267 210.31 358.267 210.926C358.248 221.339 364.768 226.018 374.179 221.65C378.959 219.43 383.117 215.79 387.375 212.556C389.886 210.646 392.037 208.263 394.48 205.98C394.48 206.453 394.492 206.913 394.48 207.374C394.256 215.884 400.21 219.71 407.831 215.834C410.181 214.64 412.312 213.01 414.805 211.405C414.805 213.899 414.73 216.133 414.817 218.366C415.166 226.969 419.802 233.19 427.578 234.447C438.736 236.251 447.717 231.411 455.499 223.965C457.327 222.217 463.828 212.916 465.358 210.851C468.559 206.503 472.064 195.971 472.661 192.425ZM440.768 170.372C441.203 172.481 434.702 179.622 434.702 179.622C434.702 179.622 440.333 168.263 440.768 170.372ZM416.284 169.495C415.874 172.86 411.548 176.194 411.548 176.194C411.548 176.194 416.657 166.471 416.284 169.495ZM262.594 151.162C268.064 145.837 273.689 140.648 279.439 135.622C282.335 133.09 289.384 128.269 290.801 131.323C292.218 134.378 288.539 137.351 287.022 139.118C281.366 145.718 274.249 150.521 266.721 154.708C263.508 156.493 260.046 157.83 256.248 158.9C258.349 156.3 260.22 153.476 262.594 151.162ZM206.777 177.028C206.162 177.034 200.779 176.798 198.871 176.138C195.707 175.044 195.135 171.579 197.534 169.221C201.966 164.866 207.666 165.98 210.183 171.697C211.725 175.187 210.569 177.003 206.777 177.028ZM185.438 125.413C186.047 124.393 186.98 123.36 188.012 122.85C188.876 122.427 190.392 122.378 191.101 122.888C191.754 123.36 191.356 125.749 191.225 126.701C190.423 132.462 186.601 136.524 181.883 139.771C179.017 141.743 173.212 145.563 172.348 145.563C171.484 145.563 181.64 131.752 185.438 125.413ZM172.777 88.4489C174.561 86.0663 180.23 81.2575 181.957 80.9278C183.02 80.7225 184.773 81.3384 185.351 82.1782C185.929 83.0181 185.923 84.9652 185.308 85.7863C183.356 88.4053 181.342 91.2234 178.719 93.0523C174.747 95.8206 165.125 101.028 163.484 101.028C161.843 101.028 170.62 91.3291 172.777 88.4489ZM251.213 208.207C246.57 211.884 241.691 215.361 235.177 212.68C232.106 211.417 230.204 208.829 230.925 205.644C232.467 198.826 234.773 192.251 238.626 186.073C240.982 196.754 244.73 199.373 257.416 199.199C256.366 203.013 254.072 205.943 251.213 208.207ZM258.423 187.597C256.074 187.529 253.967 187.168 253.818 184.25C253.706 182.061 256.546 178.757 258.43 178.67C260.456 178.571 261.91 180.929 261.91 184.568C262.377 187.137 260.754 187.66 258.423 187.597Z" fill="white"/>
</g>
<defs>
<filter id="filter0_d_10_4" x="0" y="0" width="504" height="407" filterUnits="userSpaceOnUse" color-interpolation-filters="sRGB">
<feFlood flood-opacity="0" result="BackgroundImageFix"/>
<feColorMatrix in="SourceAlpha" type="matrix" values="0 0 0 0 0 0 0 0 0 0 0 0 0 0 0 0 0 0 127 0" result="hardAlpha"/>
<feOffset dy="4"/>
<feGaussianBlur stdDeviation="0.5"/>
<feComposite in2="hardAlpha" operator="out"/>
<feColorMatrix type="matrix" values="0 0 0 0 0 0 0 0 0 0 0 0 0 0 0 0 0 0 0.25 0"/>
<feBlend mode="normal" in2="BackgroundImageFix" result="effect1_dropShadow_10_4"/>
<feBlend mode="normal" in="SourceGraphic" in2="effect1_dropShadow_10_4" result="shape"/>
</filter>
</defs>
</svg>
